<?xml version="1.0" standalone="no"?>
<!DOCTYPE svg PUBLIC "-//W3C//DTD SVG 20010904//EN"
 "http://www.w3.org/TR/2001/REC-SVG-20010904/DTD/svg10.dtd">
<svg version="1.0" xmlns="http://www.w3.org/2000/svg"
 width="64.000000pt" height="64.000000pt" viewBox="0 0 64.000000 64.000000"
 preserveAspectRatio="xMidYMid meet">

<g transform="translate(0.000000,64.000000) scale(0.100000,-0.100000)"
fill="#000000" stroke="none">
<path d="M275 608 c-57 -31 -105 -98 -120 -167 -7 -31 -5 -33 11 -26 40 17
120 35 154 35 34 0 114 -18 154 -35 16 -7 18 -5 11 26 -26 122 -135 209 -210
167z"/>
<path d="M248 423 c-52 -13 12 -113 72 -113 64 0 123 99 68 114 -26 6 -114 6
-140 -1z"/>
<path d="M172 398 c-27 -13 -24 -41 10 -95 l20 -33 118 0 118 0 20 33 c11 17
23 44 27 58 5 21 2 27 -20 37 -34 16 -32 17 -39 -18 -11 -59 -75 -100 -132
-86 -35 9 -73 49 -80 86 -7 33 -9 34 -42 18z"/>
<path d="M113 320 c-34 -14 -50 -47 -72 -152 -12 -54 -21 -102 -21 -107 0 -22
34 -41 71 -41 45 0 43 -6 29 125 -9 88 3 125 40 125 18 0 18 1 2 30 -19 33
-18 32 -49 20z"/>
<path d="M478 300 c-16 -29 -16 -30 2 -30 37 0 49 -37 40 -125 -14 -131 -16
-125 29 -125 39 0 71 20 71 43 -1 44 -50 221 -66 237 -34 33 -57 33 -76 0z"/>
<path d="M142 238 c-6 -9 -7 -41 -2 -93 5 -44 9 -90 9 -102 1 -23 2 -23 171
-23 169 0 170 0 171 23 0 12 4 58 9 102 5 52 4 84 -2 93 -8 9 -56 12 -178 12
-122 0 -170 -3 -178 -12z m212 -64 c31 -30 9 -84 -34 -84 -23 0 -50 26 -50 47
0 23 29 53 51 53 10 0 25 -7 33 -16z"/>
<path d="M294 156 c-10 -26 4 -48 28 -44 17 2 23 10 23 28 0 18 -6 26 -23 28
-13 2 -25 -3 -28 -12z"/>
</g>
</svg>
